<?xml version="1.0" encoding="utf-8"?>
<svg version="1.1" xmlns:xlink="http://www.w3.org/1999/xlink" width="26px" height="26px" viewBox="3068 187  26 26" xmlns="http://www.w3.org/2000/svg">
  <path d="M 3081 188  C 3087.72 188  3093 193.28  3093 200  C 3093 206.72  3087.72 212  3081 212  C 3074.28 212  3069 206.72  3069 200  C 3069 193.28  3074.28 188  3081 188  Z " fill-rule="nonzero" fill="#f0f0f0" stroke="none" />
  <path d="M 3081 188  C 3087.72 188  3093 193.28  3093 200  C 3093 206.72  3087.72 212  3081 212  C 3074.28 212  3069 206.72  3069 200  C 3069 193.28  3074.28 188  3081 188  Z " stroke-width="2" stroke="#797979" fill="none" />
  <path d="M 3081 206.5  C 3077.36 206.5  3074.5 203.64  3074.5 200  C 3074.5 196.36  3077.36 193.5  3081 193.5  C 3084.64 193.5  3087.5 196.36  3087.5 200  C 3087.5 203.64  3084.64 206.5  3081 206.5  " fill-rule="nonzero" fill="#797979" stroke="none" />
</svg>