<?xml version="1.0" encoding="utf-8"?>
<svg version="1.1" xmlns:xlink="http://www.w3.org/1999/xlink" width="26px" height="26px" viewBox="3179 187  26 26" xmlns="http://www.w3.org/2000/svg">
  <path d="M 3192 188  C 3198.72 188  3204 193.28  3204 200  C 3204 206.72  3198.72 212  3192 212  C 3185.28 212  3180 206.72  3180 200  C 3180 193.28  3185.28 188  3192 188  Z " fill-rule="nonzero" fill="#ffffff" stroke="none" />
  <path d="M 3192 188  C 3198.72 188  3204 193.28  3204 200  C 3204 206.72  3198.72 212  3192 212  C 3185.28 212  3180 206.72  3180 200  C 3180 193.28  3185.28 188  3192 188  Z " stroke-width="2" stroke="#797979" fill="none" />
  <path d="M 3192 206.5  C 3188.36 206.5  3185.5 203.64  3185.5 200  C 3185.5 196.36  3188.36 193.5  3192 193.5  C 3195.64 193.5  3198.5 196.36  3198.5 200  C 3198.5 203.64  3195.64 206.5  3192 206.5  " fill-rule="nonzero" fill="#797979" stroke="none" />
</svg>