<?xml version="1.0" encoding="utf-8"?>
<svg version="1.1" xmlns:xlink="http://www.w3.org/1999/xlink" width="26px" height="26px" viewBox="2928 187  26 26" xmlns="http://www.w3.org/2000/svg">
  <path d="M 2941 188  C 2947.72 188  2953 193.28  2953 200  C 2953 206.72  2947.72 212  2941 212  C 2934.28 212  2929 206.72  2929 200  C 2929 193.28  2934.28 188  2941 188  Z " fill-rule="nonzero" fill="#ffffff" stroke="none" />
  <path d="M 2941 188  C 2947.72 188  2953 193.28  2953 200  C 2953 206.72  2947.72 212  2941 212  C 2934.28 212  2929 206.72  2929 200  C 2929 193.28  2934.28 188  2941 188  Z " stroke-width="2" stroke="#797979" fill="none" />
  <path d="M 2941 206.5  C 2937.36 206.5  2934.5 203.64  2934.5 200  C 2934.5 196.36  2937.36 193.5  2941 193.5  C 2944.64 193.5  2947.5 196.36  2947.5 200  C 2947.5 203.64  2944.64 206.5  2941 206.5  " fill-rule="nonzero" fill="#797979" stroke="none" />
</svg>