<?xml version="1.0" encoding="utf-8"?>
<svg version="1.1" xmlns:xlink="http://www.w3.org/1999/xlink" width="26px" height="26px" viewBox="2802 837  26 26" xmlns="http://www.w3.org/2000/svg">
  <path d="M 2803.5 842  A 3.5 3.5 0 0 1 2807 838.5 L 2823 838.5  A 3.5 3.5 0 0 1 2826.5 842 L 2826.5 858  A 3.5 3.5 0 0 1 2823 861.5 L 2807 861.5  A 3.5 3.5 0 0 1 2803.5 858 L 2803.5 842  Z " fill-rule="nonzero" fill="#ffffff" stroke="none" />
  <path d="M 2803 842  A 4 4 0 0 1 2807 838 L 2823 838  A 4 4 0 0 1 2827 842 L 2827 858  A 4 4 0 0 1 2823 862 L 2807 862  A 4 4 0 0 1 2803 858 L 2803 842  Z " stroke-width="2" stroke="#797979" fill="none" />
  <path d="M 2807.57142857143 850  L 2813.14285714286 855.571428571429  L 2822.42857142857 842.571428571429  " stroke-width="5.57142857142857" stroke="#797979" fill="none" />
</svg>