<?xml version="1.0" encoding="utf-8"?>
<svg version="1.1" xmlns:xlink="http://www.w3.org/1999/xlink" width="26px" height="26px" viewBox="2802 926  26 26" xmlns="http://www.w3.org/2000/svg">
  <path d="M 2803.5 931  A 3.5 3.5 0 0 1 2807 927.5 L 2823 927.5  A 3.5 3.5 0 0 1 2826.5 931 L 2826.5 947  A 3.5 3.5 0 0 1 2823 950.5 L 2807 950.5  A 3.5 3.5 0 0 1 2803.5 947 L 2803.5 931  Z " fill-rule="nonzero" fill="#ffffff" stroke="none" />
  <path d="M 2803 931  A 4 4 0 0 1 2807 927 L 2823 927  A 4 4 0 0 1 2827 931 L 2827 947  A 4 4 0 0 1 2823 951 L 2807 951  A 4 4 0 0 1 2803 947 L 2803 931  Z " stroke-width="2" stroke="#797979" fill="none" />
</svg>