<?xml version="1.0" encoding="utf-8"?>
<svg version="1.1" xmlns:xlink="http://www.w3.org/1999/xlink" width="26px" height="26px" viewBox="2802 1014  26 26" xmlns="http://www.w3.org/2000/svg">
  <path d="M 2803.5 1019  A 3.5 3.5 0 0 1 2807 1015.5 L 2823 1015.5  A 3.5 3.5 0 0 1 2826.5 1019 L 2826.5 1035  A 3.5 3.5 0 0 1 2823 1038.5 L 2807 1038.5  A 3.5 3.5 0 0 1 2803.5 1035 L 2803.5 1019  Z " fill-rule="nonzero" fill="#f0f0f0" stroke="none" />
  <path d="M 2803 1019  A 4 4 0 0 1 2807 1015 L 2823 1015  A 4 4 0 0 1 2827 1019 L 2827 1035  A 4 4 0 0 1 2823 1039 L 2807 1039  A 4 4 0 0 1 2803 1035 L 2803 1019  Z " stroke-width="2" stroke="#797979" fill="none" />
</svg>