<?xml version="1.0" encoding="utf-8"?>
<svg version="1.1" xmlns:xlink="http://www.w3.org/1999/xlink" width="26px" height="26px" viewBox="815 959  26 26" xmlns="http://www.w3.org/2000/svg">
  <path d="M 828 960  C 834.72 960  840 965.28  840 972  C 840 978.72  834.72 984  828 984  C 821.28 984  816 978.72  816 972  C 816 965.28  821.28 960  828 960  Z " fill-rule="nonzero" fill="#ffffff" stroke="none" />
  <path d="M 828 960  C 834.72 960  840 965.28  840 972  C 840 978.72  834.72 984  828 984  C 821.28 984  816 978.72  816 972  C 816 965.28  821.28 960  828 960  Z " stroke-width="2" stroke="#797979" fill="none" />
  <path d="M 828 978.5  C 824.36 978.5  821.5 975.64  821.5 972  C 821.5 968.36  824.36 965.5  828 965.5  C 831.64 965.5  834.5 968.36  834.5 972  C 834.5 975.64  831.64 978.5  828 978.5  " fill-rule="nonzero" fill="#797979" stroke="none" />
</svg>