<?xml version="1.0" encoding="utf-8"?>
<svg version="1.1" xmlns:xlink="http://www.w3.org/1999/xlink" width="26px" height="26px" viewBox="726 959  26 26" xmlns="http://www.w3.org/2000/svg">
  <path d="M 739 960  C 745.72 960  751 965.28  751 972  C 751 978.72  745.72 984  739 984  C 732.28 984  727 978.72  727 972  C 727 965.28  732.28 960  739 960  Z " fill-rule="nonzero" fill="#ffffff" stroke="none" />
  <path d="M 739 960  C 745.72 960  751 965.28  751 972  C 751 978.72  745.72 984  739 984  C 732.28 984  727 978.72  727 972  C 727 965.28  732.28 960  739 960  Z " stroke-width="2" stroke="#797979" fill="none" />
  <path d="M 739 978.5  C 735.36 978.5  732.5 975.64  732.5 972  C 732.5 968.36  735.36 965.5  739 965.5  C 742.64 965.5  745.5 968.36  745.5 972  C 745.5 975.64  742.64 978.5  739 978.5  " fill-rule="nonzero" fill="#797979" stroke="none" />
</svg>