<?xml version="1.0" encoding="utf-8"?>
<svg version="1.1" xmlns:xlink="http://www.w3.org/1999/xlink" width="26px" height="26px" viewBox="896 880  26 26" xmlns="http://www.w3.org/2000/svg">
  <path d="M 909 881  C 915.72 881  921 886.28  921 893  C 921 899.72  915.72 905  909 905  C 902.28 905  897 899.72  897 893  C 897 886.28  902.28 881  909 881  Z " fill-rule="nonzero" fill="#ffffff" stroke="none" />
  <path d="M 909 881  C 915.72 881  921 886.28  921 893  C 921 899.72  915.72 905  909 905  C 902.28 905  897 899.72  897 893  C 897 886.28  902.28 881  909 881  Z " stroke-width="2" stroke="#797979" fill="none" />
  <path d="M 909 899.5  C 905.36 899.5  902.5 896.64  902.5 893  C 902.5 889.36  905.36 886.5  909 886.5  C 912.64 886.5  915.5 889.36  915.5 893  C 915.5 896.64  912.64 899.5  909 899.5  " fill-rule="nonzero" fill="#797979" stroke="none" />
</svg>