<?xml version="1.0" encoding="utf-8"?>
<svg version="1.1" xmlns:xlink="http://www.w3.org/1999/xlink" width="26px" height="26px" viewBox="726 880  26 26" xmlns="http://www.w3.org/2000/svg">
  <path d="M 739 881  C 745.72 881  751 886.28  751 893  C 751 899.72  745.72 905  739 905  C 732.28 905  727 899.72  727 893  C 727 886.28  732.28 881  739 881  Z " fill-rule="nonzero" fill="#f0f0f0" stroke="none" />
  <path d="M 739 881  C 745.72 881  751 886.28  751 893  C 751 899.72  745.72 905  739 905  C 732.28 905  727 899.72  727 893  C 727 886.28  732.28 881  739 881  Z " stroke-width="2" stroke="#797979" fill="none" />
  <path d="M 739 899.5  C 735.36 899.5  732.5 896.64  732.5 893  C 732.5 889.36  735.36 886.5  739 886.5  C 742.64 886.5  745.5 889.36  745.5 893  C 745.5 896.64  742.64 899.5  739 899.5  " fill-rule="nonzero" fill="#797979" stroke="none" />
</svg>